<?xml version="1.0" encoding="UTF-8"?>
<!DOCTYPE svg PUBLIC "-//W3C//DTD SVG 1.1//EN" "http://www.w3.org/Graphics/SVG/1.1/DTD/svg11.dtd">
<!-- Creator: CorelDRAW 2021 (64-Bit) -->
<svg xmlns="http://www.w3.org/2000/svg" xml:space="preserve" width="308px" height="65px" version="1.1" style="shape-rendering:geometricPrecision; text-rendering:geometricPrecision; image-rendering:optimizeQuality; fill-rule:evenodd; clip-rule:evenodd"
viewBox="0 0 63.38 13.4"
 xmlns:xlink="http://www.w3.org/1999/xlink"
 xmlns:xodm="http://www.corel.com/coreldraw/odm/2003">
 <defs>
  <style type="text/css">
   <![CDATA[
    .fil9 {fill:#FEFEFE}
    .fil6 {fill:#2B2A29;fill-rule:nonzero}
    .fil8 {fill:#06BBF9;fill-rule:nonzero}
    .fil7 {fill:#3BC661;fill-rule:nonzero}
    .fil0 {fill:url(#id0)}
    .fil1 {fill:url(#id1)}
    .fil5 {fill:url(#id2)}
    .fil4 {fill:url(#id3)}
    .fil3 {fill:url(#id4)}
    .fil2 {fill:url(#id5)}
   ]]>
  </style>
  <linearGradient id="id0" gradientUnits="userSpaceOnUse" x1="7.15" y1="7.47" x2="11.37" y2="9.42">
   <stop offset="0" style="stop-opacity:1; stop-color:#006838"/>
   <stop offset="0.0392157" style="stop-opacity:1; stop-color:#006838"/>
   <stop offset="1" style="stop-opacity:1; stop-color:#3BC661"/>
  </linearGradient>
  <linearGradient id="id1" gradientUnits="userSpaceOnUse" x1="0.65" y1="7.47" x2="4.55" y2="9.42">
   <stop offset="0" style="stop-opacity:1; stop-color:#006838"/>
   <stop offset="1" style="stop-opacity:1; stop-color:#3BC661"/>
  </linearGradient>
  <linearGradient id="id2" gradientUnits="userSpaceOnUse" x1="4.66" y1="11.05" x2="12.64" y2="10.4">
   <stop offset="0" style="stop-opacity:1; stop-color:#006838"/>
   <stop offset="0.290196" style="stop-opacity:1; stop-color:#29A954"/>
   <stop offset="0.741176" style="stop-opacity:1; stop-color:#3BC661"/>
   <stop offset="1" style="stop-opacity:1; stop-color:#3BC661"/>
  </linearGradient>
  <linearGradient id="id3" gradientUnits="userSpaceOnUse" x1="5.85" y1="7.8" x2="6.17" y2="5.2">
   <stop offset="0" style="stop-opacity:1; stop-color:#115593"/>
   <stop offset="0.290196" style="stop-opacity:1; stop-color:#0C88C6"/>
   <stop offset="0.94902" style="stop-opacity:1; stop-color:#06BBF9"/>
   <stop offset="1" style="stop-opacity:1; stop-color:#06BBF9"/>
  </linearGradient>
  <linearGradient id="id4" gradientUnits="userSpaceOnUse" x1="0.97" y1="4.48" x2="11.68" y2="4.48">
   <stop offset="0" style="stop-opacity:1; stop-color:#27AAE1"/>
   <stop offset="0.760784" style="stop-opacity:1; stop-color:#1C80BA"/>
   <stop offset="1" style="stop-opacity:1; stop-color:#115593"/>
  </linearGradient>
  <linearGradient id="id5" gradientUnits="userSpaceOnUse" xlink:href="#id3" x1="3.93" y1="3.18" x2="0.08" y2="6.92">
  </linearGradient>
 </defs>
 <g id="Слой_x0020_1">
  <metadata id="CorelCorpID_0Corel-Layer"/>
  <path class="fil0" d="M7.88 9.96c0,-1.37 0,-2.76 0,-2.76l0 -1.03c0,-0.24 0.19,-0.44 0.43,-0.44l3.79 0.02 0.1 0.54 -0.01 2.84c-0.07,0.89 -0.52,1.37 -1.2,1.78l-3.81 2.2c-0.23,0.14 -0.47,0.22 -0.73,0.27 1.55,-0.56 1.42,-2.62 1.43,-3.42z"/>
  <path class="fil1" d="M4.23 9.94c-0.01,-1.38 0,-2.76 0,-2.76l0 -1.04c0,-0.24 -0.2,-0.44 -0.44,-0.44l-3.79 0.03 0 0.6 0.01 2.94c0.1,0.67 0.51,1.27 1.1,1.62l3.81 2.2c0.23,0.13 0.48,0.22 0.73,0.26 -1.54,-0.55 -1.42,-2.61 -1.42,-3.41l0 0z"/>
  <path class="fil2" d="M4.63 2.76c-0.92,-0.59 -2.26,-0.9 -3.5,-0.19 -0.7,0.41 -1.13,1.16 -1.13,1.96l0 4.4c0,0.11 0.01,0.23 0.03,0.34 -0.11,-1.32 0.62,-1.92 1.1,-2.28 1.54,-1.15 3.42,-2.19 5.07,-3.36 -0.51,-0.33 -1.05,-0.53 -1.57,-0.87l0 0z"/>
  <path class="fil3" d="M12.19 8.99l0 -4.76c-0.03,-0.84 -0.71,-1.5 -1.11,-1.73l-3.81 -2.2c-0.35,-0.2 -0.74,-0.3 -1.13,-0.3 -0.39,0 -0.78,0.1 -1.13,0.3l-3.81 2.2c1.25,-0.72 2.46,-0.4 3.38,0.19l4.54 3.1c1.17,0.8 2.92,1.68 3.07,3.2z"/>
  <path class="fil4" d="M5.46 6.44c0,-0.11 0.09,-0.2 0.21,-0.2l0.85 0c0.11,0 0.2,0.09 0.2,0.2l0 0.85c0,0.11 -0.09,0.2 -0.2,0.2l-0.85 0c-0.12,0 -0.21,-0.09 -0.21,-0.2l0 -0.85z"/>
  <path class="fil5" d="M9.83 9.12l-1.8 0 -3.72 0 0 -0.79 0 0 0 -0.01 0 0.01 0 0c0,0.06 0,1.07 0,1.62 0.01,0.81 -0.11,2.87 1.43,3.42 0.13,0.02 0.27,0.03 0.4,0.03 0.39,0 0.78,-0.1 1.13,-0.3l3.81 -2.2c0.7,-0.4 1.11,-1.14 1.11,-1.95 -0.46,0.17 -1.34,0.12 -2.36,0.17l0 0z"/>
  <g id="_2194971805888">
   <path class="fil6" d="M18.33 2.78l0.78 2.45 0.79 -2.45 1.12 0 0 3.53 -0.85 0 0 -0.83 0.08 -1.68 -0.86 2.51 -0.56 0 -0.85 -2.52 0.08 1.69 0 0.83 -0.85 0 0 -3.53 1.12 0zm5.05 2.59c0,-0.12 -0.04,-0.22 -0.13,-0.29 -0.09,-0.07 -0.24,-0.14 -0.46,-0.22 -0.23,-0.07 -0.41,-0.14 -0.55,-0.21 -0.46,-0.23 -0.68,-0.54 -0.68,-0.93 0,-0.19 0.05,-0.37 0.17,-0.52 0.11,-0.15 0.27,-0.26 0.48,-0.35 0.21,-0.08 0.44,-0.12 0.7,-0.12 0.26,0 0.49,0.04 0.69,0.13 0.2,0.09 0.35,0.22 0.47,0.39 0.11,0.17 0.16,0.36 0.16,0.57l-0.85 0c0,-0.14 -0.04,-0.25 -0.13,-0.33 -0.09,-0.08 -0.21,-0.12 -0.36,-0.12 -0.15,0 -0.27,0.03 -0.36,0.1 -0.08,0.07 -0.13,0.15 -0.13,0.26 0,0.09 0.05,0.17 0.15,0.24 0.09,0.08 0.27,0.15 0.51,0.23 0.24,0.08 0.44,0.17 0.6,0.26 0.38,0.22 0.57,0.52 0.57,0.91 0,0.31 -0.11,0.55 -0.35,0.72 -0.23,0.18 -0.55,0.27 -0.95,0.27 -0.29,0 -0.55,-0.05 -0.78,-0.16 -0.23,-0.1 -0.41,-0.24 -0.53,-0.42 -0.11,-0.18 -0.17,-0.38 -0.17,-0.61l0.85 0c0,0.18 0.05,0.32 0.15,0.41 0.1,0.09 0.26,0.14 0.48,0.14 0.14,0 0.25,-0.03 0.33,-0.09 0.08,-0.06 0.12,-0.15 0.12,-0.26zm2.49 -0.38l-0.35 0.39 0 0.93 -0.85 0 0 -3.53 0.85 0 0 1.55 0.3 -0.44 0.76 -1.11 1.05 0 -1.19 1.56 1.19 1.97 -1.01 0 -0.75 -1.32z"/>
   <path class="fil7" d="M30.9 5.37c0,-0.12 -0.04,-0.22 -0.13,-0.29 -0.09,-0.07 -0.24,-0.14 -0.46,-0.22 -0.22,-0.07 -0.4,-0.14 -0.54,-0.21 -0.46,-0.23 -0.69,-0.54 -0.69,-0.93 0,-0.19 0.06,-0.37 0.17,-0.52 0.11,-0.15 0.28,-0.26 0.48,-0.35 0.21,-0.08 0.45,-0.12 0.71,-0.12 0.25,0 0.48,0.04 0.68,0.13 0.2,0.09 0.36,0.22 0.47,0.39 0.11,0.17 0.17,0.36 0.17,0.57l-0.85 0c0,-0.14 -0.05,-0.25 -0.14,-0.33 -0.08,-0.08 -0.2,-0.12 -0.35,-0.12 -0.15,0 -0.27,0.03 -0.36,0.1 -0.09,0.07 -0.14,0.15 -0.14,0.26 0,0.09 0.05,0.17 0.15,0.24 0.1,0.08 0.27,0.15 0.51,0.23 0.25,0.08 0.45,0.17 0.6,0.26 0.38,0.22 0.58,0.52 0.58,0.91 0,0.31 -0.12,0.55 -0.35,0.72 -0.24,0.18 -0.56,0.27 -0.96,0.27 -0.29,0 -0.55,-0.05 -0.78,-0.16 -0.23,-0.1 -0.4,-0.24 -0.52,-0.42 -0.12,-0.18 -0.18,-0.38 -0.18,-0.61l0.86 0c0,0.18 0.04,0.32 0.14,0.41 0.1,0.09 0.26,0.14 0.48,0.14 0.14,0 0.25,-0.03 0.33,-0.09 0.08,-0.06 0.12,-0.15 0.12,-0.26zm3.48 -0.56l-1.34 0 0 0.84 1.58 0 0 0.66 -2.43 0 0 -3.53 2.44 0 0 0.65 -1.59 0 0 0.75 1.34 0 0 0.63zm1.44 0.3l0 1.2 -0.85 0 0 -3.53 1.41 0c0.27,0 0.51,0.05 0.72,0.15 0.21,0.1 0.37,0.24 0.48,0.42 0.11,0.18 0.17,0.39 0.17,0.62 0,0.35 -0.12,0.62 -0.37,0.83 -0.25,0.2 -0.58,0.31 -1.01,0.31l-0.55 0zm0 -0.66l0.56 0c0.17,0 0.29,-0.04 0.38,-0.12 0.08,-0.08 0.13,-0.2 0.13,-0.35 0,-0.17 -0.05,-0.3 -0.14,-0.4 -0.08,-0.1 -0.21,-0.14 -0.36,-0.15l-0.57 0 0 1.02zm5.16 -1.02l-1.06 0 0 2.88 -0.86 0 0 -2.88 -1.04 0 0 -0.65 2.96 0 0 0.65zm1.26 2.88l-0.85 0 0 -3.53 0.85 0 0 3.53zm1.79 -1.32l-0.34 0.39 0 0.93 -0.86 0 0 -3.53 0.86 0 0 1.55 0.29 -0.44 0.76 -1.11 1.05 0 -1.19 1.56 1.19 1.97 -1 0 -0.76 -1.32z"/>
   <path class="fil8" d="M50.14 5.87c-0.13,0.15 -0.32,0.27 -0.58,0.36 -0.25,0.08 -0.53,0.13 -0.83,0.13 -0.46,0 -0.83,-0.14 -1.1,-0.43 -0.28,-0.28 -0.43,-0.67 -0.45,-1.18l0 -0.3c0,-0.35 0.06,-0.65 0.18,-0.91 0.13,-0.26 0.3,-0.46 0.53,-0.6 0.23,-0.14 0.5,-0.21 0.8,-0.21 0.44,0 0.78,0.1 1.02,0.3 0.24,0.2 0.39,0.5 0.43,0.9l-0.82 0c-0.03,-0.2 -0.1,-0.34 -0.19,-0.42 -0.1,-0.08 -0.24,-0.13 -0.41,-0.13 -0.22,0 -0.38,0.09 -0.5,0.28 -0.12,0.18 -0.18,0.43 -0.18,0.77l0 0.21c0,0.36 0.06,0.62 0.18,0.8 0.12,0.17 0.31,0.26 0.57,0.26 0.22,0 0.39,-0.05 0.5,-0.15l0 -0.54 -0.59 0 0 -0.59 1.44 0 0 1.45zm1.8 -0.81l-0.46 0 0 1.25 -0.85 0 0 -3.53 1.39 0c0.42,0 0.75,0.09 0.98,0.28 0.24,0.18 0.36,0.45 0.36,0.78 0,0.25 -0.05,0.45 -0.15,0.62 -0.1,0.16 -0.26,0.29 -0.47,0.39l0.74 1.42 0 0.04 -0.91 0 -0.63 -1.25zm-0.46 -0.65l0.54 0c0.16,0 0.28,-0.05 0.37,-0.13 0.08,-0.09 0.12,-0.21 0.12,-0.36 0,-0.15 -0.04,-0.27 -0.13,-0.36 -0.08,-0.08 -0.2,-0.13 -0.36,-0.13l-0.54 0 0 0.98zm5.38 0.21c0,0.34 -0.06,0.65 -0.19,0.91 -0.13,0.27 -0.31,0.47 -0.54,0.61 -0.24,0.15 -0.51,0.22 -0.81,0.22 -0.3,0 -0.57,-0.07 -0.8,-0.21 -0.23,-0.14 -0.41,-0.34 -0.54,-0.59 -0.13,-0.26 -0.2,-0.55 -0.21,-0.89l0 -0.2c0,-0.34 0.06,-0.65 0.19,-0.91 0.13,-0.27 0.31,-0.47 0.55,-0.62 0.23,-0.14 0.5,-0.21 0.81,-0.21 0.3,0 0.56,0.07 0.8,0.21 0.23,0.14 0.41,0.35 0.54,0.61 0.13,0.26 0.2,0.56 0.2,0.9l0 0.17zm-0.86 -0.15c0,-0.35 -0.06,-0.62 -0.18,-0.8 -0.12,-0.19 -0.28,-0.28 -0.5,-0.28 -0.43,0 -0.66,0.32 -0.68,0.97l0 0.26c0,0.34 0.06,0.61 0.17,0.79 0.11,0.19 0.28,0.28 0.51,0.28 0.22,0 0.38,-0.09 0.5,-0.27 0.12,-0.18 0.17,-0.45 0.18,-0.79l0 -0.16zm4.07 -1.69l0 2.31c0,0.26 -0.05,0.49 -0.17,0.68 -0.11,0.19 -0.27,0.34 -0.47,0.44 -0.21,0.1 -0.46,0.15 -0.74,0.15 -0.43,0 -0.77,-0.11 -1.02,-0.34 -0.25,-0.22 -0.37,-0.52 -0.38,-0.91l0 -2.33 0.86 0 0 2.34c0.01,0.39 0.19,0.58 0.54,0.58 0.17,0 0.31,-0.05 0.4,-0.14 0.09,-0.1 0.13,-0.26 0.13,-0.48l0 -2.3 0.85 0zm1.38 2.33l0 1.2 -0.85 0 0 -3.53 1.41 0c0.27,0 0.51,0.05 0.72,0.15 0.21,0.1 0.37,0.24 0.48,0.42 0.11,0.18 0.17,0.39 0.17,0.62 0,0.35 -0.12,0.62 -0.37,0.83 -0.24,0.2 -0.58,0.31 -1.01,0.31l-0.55 0zm0 -0.66l0.56 0c0.17,0 0.29,-0.04 0.38,-0.12 0.09,-0.08 0.13,-0.2 0.13,-0.35 0,-0.17 -0.05,-0.3 -0.14,-0.4 -0.08,-0.1 -0.21,-0.14 -0.36,-0.15l-0.57 0 0 1.02z"/>
  </g>
  <path class="fil6" d="M18.57 8.37l0.29 0 0 2.18 -0.29 0 0 -1.68 -1.07 1.68 -0.29 0 0 -2.18 0.29 0 0 1.68 1.07 -1.68zm2.09 2.18l-0.27 0 0 -0.69 -0.75 0 0 0.69 -0.28 0 0 -1.62 0.28 0 0 0.7 0.75 0 0 -0.7 0.27 0 0 1.62zm1.74 -0.71l-0.19 0 0 0.71 -0.28 0 0 -0.71 -0.2 0 -0.45 0.71 -0.35 0 0.58 -0.84 -0.53 -0.78 0.34 0 0.42 0.67 0.19 0 0 -0.67 0.28 0 0 0.67 0.18 0 0.42 -0.67 0.34 0 -0.53 0.78 0.58 0.84 -0.35 0 -0.45 -0.71zm1.7 0.74c-0.22,0 -0.4,-0.07 -0.54,-0.22 -0.14,-0.14 -0.2,-0.33 -0.2,-0.58l0 -0.05c0,-0.16 0.03,-0.3 0.09,-0.43 0.06,-0.13 0.15,-0.22 0.26,-0.3 0.11,-0.07 0.23,-0.1 0.35,-0.1 0.22,0 0.38,0.07 0.5,0.21 0.11,0.13 0.17,0.33 0.17,0.59l0 0.12 -1.1 0c0.01,0.16 0.05,0.29 0.14,0.39 0.09,0.09 0.21,0.14 0.34,0.14 0.1,0 0.18,-0.02 0.25,-0.06 0.07,-0.04 0.13,-0.09 0.18,-0.15l0.17 0.13c-0.14,0.21 -0.34,0.31 -0.61,0.31zm-0.04 -1.46c-0.11,0 -0.2,0.05 -0.28,0.13 -0.07,0.08 -0.12,0.19 -0.14,0.34l0.81 0 0 -0.02c0,-0.14 -0.04,-0.25 -0.11,-0.33 -0.07,-0.08 -0.16,-0.12 -0.28,-0.12zm2.32 1.43l-0.28 0 0 -0.69 -0.75 0 0 0.69 -0.27 0 0 -1.62 0.27 0 0 0.7 0.75 0 0 -0.7 0.28 0 0 1.62zm1.11 0.03c-0.22,0 -0.39,-0.07 -0.53,-0.22 -0.14,-0.14 -0.21,-0.33 -0.21,-0.58l0 -0.05c0,-0.16 0.03,-0.3 0.09,-0.43 0.06,-0.13 0.15,-0.22 0.26,-0.3 0.11,-0.07 0.23,-0.1 0.36,-0.1 0.21,0 0.37,0.07 0.49,0.21 0.12,0.13 0.18,0.33 0.18,0.59l0 0.12 -1.1 0c0,0.16 0.05,0.29 0.14,0.39 0.09,0.09 0.2,0.14 0.34,0.14 0.1,0 0.18,-0.02 0.25,-0.06 0.07,-0.04 0.12,-0.09 0.18,-0.15l0.16 0.13c-0.13,0.21 -0.34,0.31 -0.61,0.31zm-0.03 -1.46c-0.11,0 -0.21,0.05 -0.28,0.13 -0.08,0.08 -0.13,0.19 -0.14,0.34l0.81 0 0 -0.02c-0.01,-0.14 -0.05,-0.25 -0.12,-0.33 -0.06,-0.08 -0.16,-0.12 -0.27,-0.12zm2.36 0.64c0,0.24 -0.06,0.44 -0.17,0.59 -0.12,0.16 -0.27,0.23 -0.46,0.23 -0.2,0 -0.35,-0.06 -0.47,-0.19l0 0.78 -0.27 0 0 -2.24 0.25 0 0.01 0.18c0.12,-0.14 0.27,-0.21 0.47,-0.21 0.2,0 0.35,0.07 0.46,0.22 0.12,0.14 0.18,0.35 0.18,0.61l0 0.03zm-0.28 -0.03c0,-0.19 -0.04,-0.33 -0.12,-0.44 -0.08,-0.1 -0.18,-0.16 -0.32,-0.16 -0.17,0 -0.29,0.08 -0.38,0.23l0 0.77c0.09,0.15 0.21,0.22 0.38,0.22 0.14,0 0.24,-0.05 0.32,-0.15 0.08,-0.11 0.12,-0.27 0.12,-0.47zm1.95 0.82l-0.28 0 0 -0.69 -0.74 0 0 0.69 -0.28 0 0 -1.62 0.28 0 0 0.7 0.74 0 0 -0.7 0.28 0 0 1.62zm0.75 -1.06l0.42 0c0.18,0 0.33,0.05 0.44,0.14 0.1,0.1 0.16,0.22 0.16,0.38 0,0.17 -0.06,0.3 -0.17,0.39 -0.11,0.1 -0.26,0.15 -0.44,0.15l-0.69 0 0 -1.62 0.28 0 0 0.56zm1.59 1.06l-0.28 0 0 -1.62 0.28 0 0 1.62zm-1.59 -0.84l0 0.61 0.41 0c0.1,0 0.18,-0.02 0.24,-0.08 0.06,-0.05 0.09,-0.12 0.09,-0.22 0,-0.09 -0.03,-0.16 -0.09,-0.22 -0.05,-0.05 -0.13,-0.08 -0.23,-0.09l-0.42 0zm2.75 0.87c-0.22,0 -0.4,-0.07 -0.54,-0.22 -0.13,-0.14 -0.2,-0.33 -0.2,-0.58l0 -0.05c0,-0.16 0.03,-0.3 0.09,-0.43 0.06,-0.13 0.15,-0.22 0.26,-0.3 0.11,-0.07 0.23,-0.1 0.36,-0.1 0.21,0 0.37,0.07 0.49,0.21 0.11,0.13 0.17,0.33 0.17,0.59l0 0.12 -1.1 0c0.01,0.16 0.06,0.29 0.14,0.39 0.09,0.09 0.21,0.14 0.35,0.14 0.09,0 0.18,-0.02 0.24,-0.06 0.07,-0.04 0.13,-0.09 0.18,-0.15l0.17 0.13c-0.13,0.21 -0.34,0.31 -0.61,0.31zm-0.03 -1.46c-0.12,0 -0.21,0.05 -0.29,0.13 -0.07,0.08 -0.12,0.19 -0.14,0.34l0.82 0 0 -0.02c-0.01,-0.14 -0.05,-0.25 -0.12,-0.33 -0.07,-0.08 -0.16,-0.12 -0.27,-0.12zm2.39 1.23c0.1,0 0.19,-0.03 0.26,-0.09 0.08,-0.06 0.12,-0.13 0.12,-0.22l0.27 0c-0.01,0.09 -0.04,0.18 -0.1,0.26 -0.06,0.09 -0.14,0.16 -0.24,0.21 -0.09,0.05 -0.2,0.07 -0.31,0.07 -0.22,0 -0.39,-0.07 -0.52,-0.22 -0.13,-0.15 -0.2,-0.35 -0.2,-0.61l0 -0.04c0,-0.16 0.03,-0.3 0.09,-0.42 0.05,-0.13 0.14,-0.22 0.25,-0.29 0.1,-0.07 0.23,-0.1 0.38,-0.1 0.18,0 0.33,0.05 0.45,0.16 0.12,0.11 0.19,0.25 0.2,0.42l-0.27 0c0,-0.1 -0.04,-0.19 -0.12,-0.25 -0.07,-0.07 -0.15,-0.11 -0.26,-0.11 -0.14,0 -0.25,0.05 -0.33,0.16 -0.07,0.1 -0.11,0.24 -0.11,0.44l0 0.05c0,0.19 0.04,0.33 0.11,0.43 0.08,0.1 0.19,0.15 0.33,0.15zm2.01 -1.42l0.27 0 0 1.62 -0.27 0 0 -1.18 -0.75 1.18 -0.28 0 0 -1.62 0.28 0 0 1.18 0.75 -1.18zm1.37 1.42c0.1,0 0.18,-0.03 0.26,-0.09 0.07,-0.06 0.11,-0.13 0.12,-0.22l0.26 0c0,0.09 -0.03,0.18 -0.09,0.26 -0.06,0.09 -0.14,0.16 -0.24,0.21 -0.1,0.05 -0.2,0.07 -0.31,0.07 -0.22,0 -0.4,-0.07 -0.53,-0.22 -0.13,-0.15 -0.19,-0.35 -0.19,-0.61l0 -0.04c0,-0.16 0.03,-0.3 0.08,-0.42 0.06,-0.13 0.14,-0.22 0.25,-0.29 0.11,-0.07 0.24,-0.1 0.39,-0.1 0.18,0 0.33,0.05 0.45,0.16 0.12,0.11 0.18,0.25 0.19,0.42l-0.26 0c-0.01,-0.1 -0.05,-0.19 -0.12,-0.25 -0.07,-0.07 -0.16,-0.11 -0.26,-0.11 -0.14,0 -0.25,0.05 -0.33,0.16 -0.08,0.1 -0.12,0.24 -0.12,0.44l0 0.05c0,0.19 0.04,0.33 0.12,0.43 0.08,0.1 0.19,0.15 0.33,0.15zm2.16 -1.2l-0.54 0 0 1.4 -0.28 0 0 -1.4 -0.53 0 0 -0.22 1.35 0 0 0.22zm0.82 1.43c-0.22,0 -0.4,-0.07 -0.53,-0.22 -0.14,-0.14 -0.21,-0.33 -0.21,-0.58l0 -0.05c0,-0.16 0.03,-0.3 0.09,-0.43 0.06,-0.13 0.15,-0.22 0.26,-0.3 0.11,-0.07 0.23,-0.1 0.36,-0.1 0.21,0 0.37,0.07 0.49,0.21 0.12,0.13 0.17,0.33 0.17,0.59l0 0.12 -1.09 0c0,0.16 0.05,0.29 0.14,0.39 0.09,0.09 0.2,0.14 0.34,0.14 0.09,0 0.18,-0.02 0.25,-0.06 0.06,-0.04 0.12,-0.09 0.17,-0.15l0.17 0.13c-0.13,0.21 -0.34,0.31 -0.61,0.31zm-0.03 -1.46c-0.11,0 -0.21,0.05 -0.28,0.13 -0.08,0.08 -0.13,0.19 -0.14,0.34l0.81 0 0 -0.02c-0.01,-0.14 -0.05,-0.25 -0.12,-0.33 -0.06,-0.08 -0.16,-0.12 -0.27,-0.12zm1.92 1.06l0.55 -1.25 0.35 0 0 1.62 -0.28 0 0 -1.18 -0.53 1.18 -0.19 0 -0.53 -1.21 0 1.21 -0.28 0 0 -1.62 0.36 0 0.55 1.25zm1.64 -0.69l0.42 0c0.19,0 0.33,0.05 0.44,0.14 0.11,0.1 0.16,0.22 0.16,0.38 0,0.17 -0.06,0.3 -0.17,0.39 -0.11,0.1 -0.25,0.15 -0.44,0.15l-0.68 0 0 -1.62 0.27 0 0 0.56zm1.6 1.06l-0.28 0 0 -1.62 0.28 0 0 1.62zm-1.6 -0.84l0 0.61 0.41 0c0.11,0 0.19,-0.02 0.24,-0.08 0.06,-0.05 0.09,-0.12 0.09,-0.22 0,-0.09 -0.03,-0.16 -0.08,-0.22 -0.06,-0.05 -0.14,-0.08 -0.24,-0.09l-0.42 0zm4.17 0.84l-0.28 0 0 -1.39 -0.75 0 0 1.39 -0.28 0 0 -1.62 1.31 0 0 1.62zm0.37 -0.83c0,-0.16 0.03,-0.3 0.09,-0.43 0.06,-0.12 0.15,-0.22 0.26,-0.29 0.11,-0.07 0.24,-0.1 0.38,-0.1 0.22,0 0.4,0.07 0.54,0.23 0.14,0.15 0.2,0.35 0.2,0.61l0 0.02c0,0.16 -0.03,0.3 -0.09,0.42 -0.06,0.13 -0.14,0.23 -0.26,0.3 -0.11,0.07 -0.24,0.1 -0.38,0.1 -0.22,0 -0.4,-0.08 -0.54,-0.23 -0.13,-0.15 -0.2,-0.35 -0.2,-0.61l0 -0.02zm0.28 0.04c0,0.18 0.04,0.32 0.12,0.43 0.08,0.11 0.2,0.16 0.34,0.16 0.14,0 0.25,-0.05 0.33,-0.16 0.08,-0.11 0.13,-0.27 0.13,-0.47 0,-0.18 -0.05,-0.32 -0.13,-0.43 -0.08,-0.11 -0.2,-0.17 -0.34,-0.17 -0.13,0 -0.24,0.06 -0.33,0.17 -0.08,0.11 -0.12,0.26 -0.12,0.47zm1.42 0.56l0.1 -0.12c0.1,-0.14 0.17,-0.35 0.18,-0.62l0.03 -0.65 1.04 0 0 1.39 0.21 0 0 0.71 -0.28 0 0 -0.48 -1.13 0 0 0.48 -0.28 0 0 -0.71 0.13 0zm0.33 0l0.74 0 0 -1.13 -0.5 0 -0.01 0.38c-0.02,0.32 -0.1,0.57 -0.23,0.75zm2.8 -0.46l-0.2 0 0 0.69 -0.28 0 0 -1.62 0.28 0 0 0.68 0.18 0 0.54 -0.68 0.34 0 -0.64 0.78 0.69 0.84 -0.35 0 -0.56 -0.69zm2.48 -0.93l0 1.62 -0.28 0 0 -1.39 -0.55 0 -0.03 0.6c-0.02,0.28 -0.07,0.48 -0.14,0.6 -0.08,0.12 -0.2,0.18 -0.36,0.19l-0.11 0 0 -0.25 0.08 0c0.09,-0.01 0.15,-0.06 0.19,-0.16 0.04,-0.09 0.06,-0.26 0.07,-0.52l0.03 -0.69 1.1 0zm0.75 0.69l0.39 0c0.02,-0.22 0.09,-0.39 0.23,-0.53 0.13,-0.13 0.3,-0.19 0.5,-0.19 0.21,0 0.38,0.07 0.52,0.21 0.13,0.14 0.21,0.33 0.22,0.56l0 0.09c0,0.16 -0.03,0.3 -0.1,0.42 -0.06,0.13 -0.14,0.23 -0.26,0.3 -0.11,0.07 -0.24,0.1 -0.38,0.1 -0.21,0 -0.38,-0.07 -0.51,-0.2 -0.13,-0.14 -0.21,-0.32 -0.22,-0.54l-0.39 0 0 0.71 -0.28 0 0 -1.62 0.28 0 0 0.69zm0.66 0.14c0,0.18 0.04,0.32 0.12,0.43 0.09,0.11 0.2,0.16 0.34,0.16 0.14,0 0.25,-0.05 0.34,-0.16 0.08,-0.11 0.12,-0.27 0.12,-0.47 0,-0.17 -0.04,-0.32 -0.13,-0.43 -0.08,-0.11 -0.19,-0.17 -0.33,-0.17 -0.14,0 -0.25,0.06 -0.33,0.17 -0.09,0.11 -0.13,0.26 -0.13,0.47zm2.76 0.79l-0.28 0 0 -0.59c-0.12,0.03 -0.24,0.05 -0.37,0.05 -0.2,0 -0.36,-0.05 -0.47,-0.16 -0.1,-0.1 -0.16,-0.25 -0.16,-0.44l0 -0.49 0.28 0 0 0.5c0,0.24 0.12,0.36 0.35,0.36 0.13,0 0.25,-0.01 0.37,-0.05l0 -0.8 0.28 0 0 1.62z"/>
  <path class="fil9" d="M4.31 9.04l0 0.12c3.22,-0.02 6.6,-0.03 7.89,-0.16l0 0 -7.89 0.04z"/>
 </g>
</svg>
